<svg width="50" height="50" viewBox="0 0 50 50" fill="none" xmlns="http://www.w3.org/2000/svg">
<path fill-rule="evenodd" clip-rule="evenodd" d="M3.125 25.5C3.125 25.0773 3.28962 24.6719 3.58265 24.373C3.87567 24.0742 4.2731 23.9062 4.6875 23.9062H41.5406L31.7062 13.8784C31.4129 13.5791 31.248 13.1732 31.248 12.75C31.248 12.3268 31.4129 11.9209 31.7062 11.6216C31.9996 11.3224 32.3976 11.1542 32.8125 11.1542C33.2274 11.1542 33.6254 11.3224 33.9188 11.6216L46.4188 24.3716C46.5643 24.5197 46.6797 24.6955 46.7585 24.8892C46.8372 25.0828 46.8778 25.2904 46.8778 25.5C46.8778 25.7096 46.8372 25.9172 46.7585 26.1108C46.6797 26.3045 46.5643 26.4803 46.4188 26.6284L33.9188 39.3784C33.6254 39.6776 33.2274 39.8458 32.8125 39.8458C32.3976 39.8458 31.9996 39.6776 31.7062 39.3784C31.4129 39.0791 31.248 38.6732 31.248 38.25C31.248 37.8268 31.4129 37.4209 31.7062 37.1216L41.5406 27.0937H4.6875C4.2731 27.0937 3.87567 26.9258 3.58265 26.627C3.28962 26.3281 3.125 25.9227 3.125 25.5Z" fill="#0C0B0A"/>
</svg>
