<svg width="50" height="50" viewBox="0 0 50 50" fill="none" xmlns="http://www.w3.org/2000/svg">
<path fill-rule="evenodd" clip-rule="evenodd" d="M46.875 25C46.875 24.5856 46.7104 24.1882 46.4174 23.8951C46.1243 23.6021 45.7269 23.4375 45.3125 23.4375H8.45938L18.2938 13.6062C18.439 13.461 18.5543 13.2885 18.6329 13.0987C18.7115 12.9089 18.752 12.7054 18.752 12.5C18.752 12.2945 18.7115 12.0911 18.6329 11.9013C18.5543 11.7115 18.439 11.539 18.2938 11.3937C18.1485 11.2485 17.976 11.1332 17.7862 11.0546C17.5964 10.976 17.393 10.9355 17.1875 10.9355C16.9821 10.9355 16.7786 10.976 16.5888 11.0546C16.399 11.1332 16.2265 11.2485 16.0813 11.3937L3.58125 23.8937C3.43574 24.0389 3.32029 24.2113 3.24152 24.4011C3.16275 24.591 3.12221 24.7945 3.12221 25C3.12221 25.2055 3.16275 25.409 3.24152 25.5988C3.32029 25.7887 3.43574 25.9611 3.58125 26.1062L16.0813 38.6062C16.2265 38.7515 16.399 38.8668 16.5888 38.9454C16.7786 39.024 16.9821 39.0645 17.1875 39.0645C17.393 39.0645 17.5964 39.024 17.7862 38.9454C17.976 38.8668 18.1485 38.7515 18.2938 38.6062C18.439 38.461 18.5543 38.2885 18.6329 38.0987C18.7115 37.9089 18.752 37.7054 18.752 37.5C18.752 37.2945 18.7115 37.0911 18.6329 36.9013C18.5543 36.7115 18.439 36.539 18.2938 36.3937L8.45938 26.5625H45.3125C45.7269 26.5625 46.1243 26.3979 46.4174 26.1048C46.7104 25.8118 46.875 25.4144 46.875 25Z" fill="#0C0B0A"/>
</svg>
