<svg width="22" height="24" viewBox="0 0 22 24" fill="none" xmlns="http://www.w3.org/2000/svg">
<path d="M18.3333 20H3.66665C3.18042 20 2.7141 19.7893 2.37028 19.4142C2.02647 19.0391 1.83331 18.5304 1.83331 18V5.913C1.85388 5.39779 2.05607 4.91116 2.39768 4.5547C2.7393 4.19824 3.19392 3.99951 3.66665 4H18.3333C18.8195 4 19.2859 4.21071 19.6297 4.58579C19.9735 4.96086 20.1666 5.46957 20.1666 6V18C20.1666 18.5304 19.9735 19.0391 19.6297 19.4142C19.2859 19.7893 18.8195 20 18.3333 20ZM3.66665 7.868V18H18.3333V7.868L11 13.2L3.66665 7.868ZM4.39998 6L11 10.8L17.6 6H4.39998Z" fill="#FEFEFC"/>
</svg>
